<svg width="32" height="32" viewBox="0 0 32 32" fill="none" xmlns="http://www.w3.org/2000/svg">
<path d="M15.6264 14.8679C16.8271 15.1863 19.4398 15.879 19.8952 14.0627C20.3598 12.2044 17.8214 11.6432 16.5786 11.3684C16.4377 11.3372 16.3135 11.3098 16.2122 11.2845L15.3344 14.792C15.418 14.8127 15.5163 14.8387 15.6264 14.8679Z" fill="white"/>
<path d="M14.2659 20.5151C15.7041 20.8939 18.8493 21.7225 19.3498 19.7211C19.862 17.6747 16.8123 16.9931 15.3244 16.6605C15.1583 16.6234 15.0115 16.5906 14.8915 16.5607L13.9233 20.4264C14.0216 20.4507 14.137 20.4811 14.2659 20.5151Z" fill="white"/>
<path fill-rule="evenodd" clip-rule="evenodd" d="M32 15.9998C32 24.8368 24.8366 32.0006 16 32.0006C7.16344 32.0006 0 24.8368 0 15.9998C0 7.16282 7.16344 -0.000976562 16 -0.000976562C24.8366 -0.000976562 32 7.16282 32 15.9998ZM19.844 10.055C22.0696 10.8193 23.6977 11.9638 23.3783 14.0937C23.1463 15.6533 22.2785 16.4077 21.1255 16.6718C22.7074 17.4921 23.2465 19.049 22.7455 20.9316C21.7944 23.6407 19.5336 23.8688 16.5266 23.3026L15.7964 26.2148L14.0337 25.7766L14.7539 22.9034C14.2969 22.7904 13.8298 22.6693 13.3488 22.5403L12.6256 25.4275L10.865 24.9893L11.5941 22.0711L8.04374 21.1787L8.91954 19.1678C8.91954 19.1678 10.2192 19.511 10.2011 19.486C10.7003 19.609 10.9222 19.2849 11.0096 19.0698L12.9882 11.1654C13.0103 10.7923 12.8807 10.3221 12.1666 10.144C12.1937 10.125 10.8861 9.82686 10.8861 9.82686L11.3551 7.95106L14.9105 8.82843L15.6337 5.94321L17.3953 6.3814L16.6873 9.2096C17.1613 9.31664 17.6374 9.42569 18.1004 9.54074L18.8034 6.73055L20.5661 7.16873L19.844 10.055Z" fill="white"/>
</svg>
