<svg width="34" height="20" viewBox="0 0 34 20" fill="none" xmlns="http://www.w3.org/2000/svg">
<path d="M21.3742 17.8632H12.625V2.13935H21.3742V17.8632Z" fill="white"/>
<path d="M13.1855 10C13.1855 6.81035 14.6789 3.9691 17.0046 2.13809C15.3039 0.79916 13.1575 0 10.8249 0C5.30262 0 0.826172 4.47708 0.826172 10C0.826172 15.5229 5.30262 20 10.8249 20C13.1575 20 15.3039 19.2008 17.0046 17.8619C14.6789 16.0309 13.1855 13.1896 13.1855 10Z" fill="white"/>
<path d="M33.1741 10C33.1741 15.5229 28.6976 20 23.1754 20C20.8427 20 18.6964 19.2008 16.9951 17.8619C19.3213 16.0309 20.8147 13.1896 20.8147 10C20.8147 6.81035 19.3213 3.9691 16.9951 2.13809C18.6964 0.79916 20.8427 0 23.1754 0C28.6976 0 33.1741 4.47708 33.1741 10Z" fill="white"/>
</svg>
