<svg width="40" height="14" viewBox="0 0 40 14" fill="none" xmlns="http://www.w3.org/2000/svg">
<path d="M15.4223 13.1183H12.02L14.1481 0.92116H17.5502L15.4223 13.1183Z" fill="white"/>
<path d="M27.7559 1.21948C27.0849 0.972684 26.0205 0.700195 24.7044 0.700195C21.3445 0.700195 18.9785 2.36099 18.964 4.73544C18.9361 6.4873 20.658 7.46032 21.9458 8.04445C23.2621 8.64133 23.7096 9.03092 23.7096 9.56296C23.6962 10.3801 22.6459 10.7567 21.6664 10.7567C20.308 10.7567 19.5802 10.5625 18.4741 10.1079L18.0261 9.91306L17.55 12.6511C18.348 12.988 19.8181 13.2871 21.3445 13.3002C24.9144 13.3002 27.2385 11.6651 27.2661 9.13474C27.2797 7.74626 26.3704 6.68235 24.4102 5.81297C23.2202 5.25489 22.4915 4.87858 22.4915 4.30756C22.5054 3.78845 23.1079 3.25676 24.4511 3.25676C25.5572 3.23071 26.3699 3.47716 26.9855 3.72378L27.2932 3.8533L27.7559 1.21948Z" fill="white"/>
<path d="M32.2779 8.79728C32.558 8.09657 33.6362 5.38462 33.6362 5.38462C33.6221 5.41066 33.9158 4.67098 34.0838 4.21689L34.3216 5.26787C34.3216 5.26787 34.9659 8.18746 35.1058 8.79728C34.5741 8.79728 32.9499 8.79728 32.2779 8.79728ZM36.4776 0.92116H33.8459C33.0343 0.92116 32.4178 1.14157 32.0676 1.93316L27.014 13.1181H30.5839C30.5839 13.1181 31.1716 11.6127 31.2979 11.2885C31.6896 11.2885 35.1624 11.2885 35.6662 11.2885C35.7639 11.7167 36.0722 13.1181 36.0722 13.1181H39.2224L36.4776 0.92116Z" fill="white"/>
<path d="M9.17828 0.92116L5.84632 9.23843L5.48222 7.55159C4.86621 5.6052 2.93427 3.49048 0.77832 2.43899L3.83028 13.1054H7.42811L12.7759 0.92116H9.17828Z" fill="white"/>
</svg>
